<?xml version="1.0" encoding="utf-8"?><svg xmlns="http://www.w3.org/2000/svg" xmlns:xlink="http://www.w3.org/1999/xlink"><symbol viewBox="0 0 18.7 35.4" id="arrow" xmlns="http://www.w3.org/2000/svg"><path d="M18.7 17L1.5 0 .1 1.4l16.2 16.3L0 34l1.6 1.4 17.1-17z"/></symbol><symbol viewBox="0 0 15.642 15.642" id="close" xmlns="http://www.w3.org/2000/svg"><path fill-rule="evenodd" d="M8.882 7.821l6.541-6.541A.75.75 0 1 0 14.362.219L7.821 6.76 1.28.22A.75.75 0 1 0 .219 1.281L6.76 7.822l-6.54 6.54a.75.75 0 0 0 1.06 1.061l6.541-6.541 6.541 6.541a.75.75 0 1 0 1.06-1.061l-6.54-6.541z"/></symbol><symbol id="pen" viewBox="0 0 331.3 331.3" xmlns="http://www.w3.org/2000/svg"><style>.cst0{fill:#010002}</style><path class="cst0" d="M30.4 317.5l4.4-17.7-12.2-4.8-8.4 13.8s4.6 12.5-.5 22.5c.1 0 6.5-10.9 16.7-13.8zm-8.2-8.1c1.5-.6 3.2.1 3.9 1.6.6 1.5-.1 3.2-1.6 3.8-1.5.6-3.2-.1-3.9-1.6-.6-1.5.1-3.2 1.6-3.8zm136.2-196.8C123.2 141.4 77.3 200.7 38.3 270l-6.8 12 7.3 2.8 3.8-10.1C63.4 237.2 119.8 139.3 223 74.2c0 0 38.4-22.9 76.3-54.5-9.2 7.7-27.4 17.4-37.2 23.6-26 16.4-57.9 31.7-103.7 69.3z"/><path class="cst0" d="M33.2 215.4c-8 28.2-7.5 49.7-4.4 55.6h4.8c13.3-27.6 77.6-127.7 117.6-159 41.4-32.5 73.4-51.3 100.3-65.1 9.4-4.8 19.1-11.4 27.8-17.9 10.6-8.4 21.3-17.3 30.8-26.1l-27.3 17.9L295 2.2l-23.2 23.6 15-25.8c-35.7 3.2-68.9 21.1-68.9 21.1-13.3 15.7-24 40.8-24 40.8-.4-12.5 8.1-31.5 8.1-31.5-6.3 2.9-30.1 16.5-30.1 16.5-11.6 9.7-15.3 35.1-15.3 35.1-2.2-10 5.5-29.3 5.5-29.3-33.5 19.3-57.5 52.2-57.5 52.2-16.6 32.6-2.9 58-8.1 51.9s-4.1-28.3-4.1-28.3c-35 33.6-38.7 49.7-38.7 49.7-5.9 14.3-11.1 52.6-11.1 52.6-3.3-3.6 0-23.6 0-23.6-8.5 17.9-4.4 34.7-4.4 34.7-3.9-1.5-5-26.5-5-26.5z"/><path class="cst0" d="M310 14.2s-13.5 13.1-30.8 26.1C252.1 61.7 226 79.1 226 79.1 123.9 139.4 67 237.9 48.2 271.7h10c3.5-2.8 8.8-5 31-11.4 28-8.1 44.7-25 44.7-25s-25.6 14.3-37.6 12.9-28.2 3.1-28.2 3.1-6.2-2.9 24.3-7.4 80.6-38.6 80.6-38.6-19.2 7.9-28 7.2c-8.8-.7-30.7 0-30.7 0 14.5-3.3 28-1.4 50.1-9.8 22.1-8.3 20.9-7.6 20.9-7.6 25.1-8.3 35.5-34.3 35.5-34.3-4.3 1.7-37.4 5.7-51.2 1.7-13.7-4.1-37.1 0-37.1 0 22.1-7.4 27-4.1 32.4-4.3 5.4-.2 22.9 1.2 57.5-10.7s44.5-26.7 44.5-26.7l-23.4 3.1C258.8 121.1 276 111 276 111c-10.6 2.9-27 4.3-27 4.3 19.4-4.3 30.2-10.3 30.2-10.3 18.2-13.8 22.4-34.3 22.4-34.3-25.8 8.8-46.2 4.8-46.2 4.8 35.4-2.4 45.2-11.4 50.1-13.6 4.9-2.1 6.9-11 6.9-11-17.9 6.4-38.1 7.5-38.1 7.5C296.2 55 315 43.9 315 43.9V32.8c-8.5 4.8-23.4 8.6-23.4 8.6l23.2-15c1.3-7.6-4.8-12.2-4.8-12.2zM23.6 290.6l13.8 5.5 2.5-6.1-13.8-5.5z"/></symbol><symbol viewBox="0 0 376.167 376.167" id="phone" xmlns="http://www.w3.org/2000/svg"><path d="M301.491 339.962H74.677c-23.654 0-42.898-19.899-42.898-44.358 0-.149.004-.298.013-.447l8.709-155.59c.247-4.412 4.027-7.793 8.435-7.54a8 8 0 0 1 7.54 8.435L47.78 295.816c.108 15.54 12.133 28.147 26.898 28.147h226.814c14.765 0 26.79-12.607 26.897-28.147l-8.696-155.354a8 8 0 0 1 7.54-8.435c4.407-.265 8.188 3.128 8.435 7.54l8.709 155.59c.008.149.013.298.013.447 0 24.459-19.244 44.358-42.899 44.358zM79.167 116.128H8.917a8 8 0 0 1 0-16h70.25a8 8 0 0 1 0 16zm256 0h-70.305a8 8 0 0 1 0-16h70.305a8 8 0 0 1 0 16z"/><path d="M187.667 308.233c-50.847 0-92.214-41.367-92.214-92.214s41.367-92.214 92.214-92.214 92.214 41.367 92.214 92.214-41.367 92.214-92.214 92.214zm0-168.429c-42.025 0-76.214 34.189-76.214 76.214s34.189 76.214 76.214 76.214 76.214-34.189 76.214-76.214-34.19-76.214-76.214-76.214z"/><path d="M187.667 228.067c-6.643 0-12.048-5.405-12.048-12.048s5.405-12.048 12.048-12.048 12.048 5.405 12.048 12.048-5.405 12.048-12.048 12.048zm0-16c-2.179 0-3.952 1.773-3.952 3.952s1.773 3.952 3.952 3.952 3.952-1.773 3.952-3.952-1.773-3.952-3.952-3.952zm0-24.169c-10.871 0-19.714-8.844-19.714-19.714s8.844-19.714 19.714-19.714 19.714 8.844 19.714 19.714-8.844 19.714-19.714 19.714zm0-23.429c-2.048 0-3.714 1.666-3.714 3.714s1.666 3.714 3.714 3.714 3.714-1.666 3.714-3.714-1.666-3.714-3.714-3.714zm0 119.249c-10.871 0-19.714-8.844-19.714-19.714s8.844-19.714 19.714-19.714 19.714 8.844 19.714 19.714-8.844 19.714-19.714 19.714zm0-23.429c-2.048 0-3.714 1.666-3.714 3.714s1.666 3.714 3.714 3.714 3.714-1.666 3.714-3.714-1.666-3.714-3.714-3.714zm-41.503-48.434c-3.446 0-6.851-.914-9.846-2.643-9.414-5.436-12.651-17.517-7.216-26.931 3.511-6.082 10.058-9.859 17.084-9.859 3.446 0 6.851.914 9.846 2.643 9.415 5.437 12.651 17.518 7.216 26.931a19.78 19.78 0 0 1-17.084 9.859zm.023-23.433a3.687 3.687 0 0 0-3.228 1.859 3.72 3.72 0 0 0 3.205 5.574 3.687 3.687 0 0 0 3.228-1.859 3.72 3.72 0 0 0-3.205-5.574zm82.96 71.342c-3.447 0-6.852-.914-9.847-2.643-9.414-5.435-12.651-17.516-7.217-26.93a19.781 19.781 0 0 1 17.085-9.86c3.446 0 6.851.914 9.846 2.643 9.414 5.435 12.651 17.516 7.216 26.931-3.51 6.082-10.056 9.859-17.083 9.859zm.022-23.432a3.687 3.687 0 0 0-3.228 1.859 3.719 3.719 0 0 0 1.36 5.074c.574.332 1.195.5 1.847.5a3.686 3.686 0 0 0 3.227-1.859 3.718 3.718 0 0 0-3.206-5.574zm-82.983 23.432a19.78 19.78 0 0 1-17.084-9.859c-5.435-9.414-2.198-21.495 7.216-26.931a19.723 19.723 0 0 1 9.846-2.643 19.78 19.78 0 0 1 17.084 9.859c5.435 9.414 2.198 21.495-7.216 26.93a19.708 19.708 0 0 1-9.846 2.644zm-.022-23.432a3.72 3.72 0 0 0-3.205 5.574 3.686 3.686 0 0 0 3.228 1.859 3.72 3.72 0 0 0 3.206-5.574 3.69 3.69 0 0 0-3.229-1.859zm83.005-24.477a19.78 19.78 0 0 1-17.084-9.859c-5.435-9.414-2.198-21.495 7.216-26.93a19.724 19.724 0 0 1 9.847-2.643 19.78 19.78 0 0 1 17.083 9.859c5.436 9.415 2.198 21.496-7.216 26.931a19.733 19.733 0 0 1-9.846 2.642zm-.022-23.433a3.719 3.719 0 0 0-3.207 5.574 3.687 3.687 0 0 0 3.228 1.859 3.65 3.65 0 0 0 1.847-.5 3.694 3.694 0 0 0 1.73-2.255 3.7 3.7 0 0 0-.371-2.819 3.685 3.685 0 0 0-3.227-1.859zm-117.293-40.401h-.02L8 148.019a8 8 0 0 1-8-8V103.6c0-.607.069-1.211.206-1.803 7.589-32.811 7.673-33.128 7.741-33.382 2.128-8.024 9.245-13.787 20.038-16.222C74.04 41.882 131.749 36.205 190.494 36.205c58.757 0 116.473 5.679 162.518 15.992 10.54 2.37 13.203 12.03 14.34 16.155.079.285.175.637 8.609 37.07a8 8 0 0 1 .206 1.804v32.79a8 8 0 0 1-8 8l-104.438.003a8 8 0 0 1-8-7.99l-.059-44.88c-20.58-2.26-42.26-3.405-64.557-3.405-24.001 0-47.956 1.313-71.319 3.908l.039 43.792a8 8 0 0 1-7.979 8.577zM16 132.019l87.826.002-.035-39.119.002-4.373a8 8 0 0 1 7.025-7.937c26.218-3.217 53.233-4.849 80.294-4.849 25.5 0 50.242 1.462 73.538 4.345a8 8 0 0 1 7.018 7.946l-.003 4.122.002.16.052 39.703 88.448-.003V108.14c-6.685-28.875-8.072-34.82-8.268-35.637-1.232-4.435-1.957-4.597-2.392-4.695-44.924-10.062-101.399-15.604-159.014-15.604-57.604 0-114.072 5.54-159 15.598-4.37.986-7.53 2.815-8.068 4.669-.205.861-1.701 7.296-7.424 32.041v27.507z"/></symbol><symbol viewBox="0 0 512 512" id="search" xmlns="http://www.w3.org/2000/svg"><path d="M497.938 430.062l-62.28-62.28a257.786 257.786 0 0 1-67.875 67.875l62.28 62.28c18.75 18.75 49.156 18.75 67.875 0 18.75-18.749 18.75-49.125 0-67.875zM448 224C448 100.281 347.719 0 224 0S0 100.281 0 224s100.281 224 224 224 224-100.281 224-224zM224 400c-97.047 0-176-78.969-176-176 0-97.047 78.953-176 176-176 97.031 0 176 78.953 176 176 0 97.031-78.969 176-176 176z"/></symbol></svg>